<svg width="34" height="41" viewBox="0 0 34 41" fill="none" xmlns="http://www.w3.org/2000/svg">
<path d="M2.88281 13.3616V39.1555C2.88281 39.348 3.03887 39.504 3.23138 39.504H11.655C11.8476 39.504 12.0036 39.348 12.0036 39.1555V31.0223C12.0036 30.8298 12.1597 30.6737 12.3522 30.6737H21.5311C21.7236 30.6737 21.8796 30.8298 21.8796 31.0223V39.1555C21.8796 39.348 22.0357 39.504 22.2282 39.504H30.8262C31.0187 39.504 31.1747 39.348 31.1747 39.1555V3.36938" stroke="#084CAF" stroke-width="2.32377"/>
<path d="M11.7129 6.0415V20.6813C11.7129 20.8738 11.8689 21.0298 12.0615 21.0298H21.008C21.2005 21.0298 21.3565 20.8738 21.3565 20.6813V16.208" stroke="#084CAF" stroke-width="2.32377"/>
<circle cx="2.76718" cy="12.1998" r="1.51045" stroke="#084CAF" stroke-width="1.16189"/>
<circle cx="11.7125" cy="4.99593" r="1.51045" stroke="#084CAF" stroke-width="1.16189"/>
<circle cx="21.357" cy="14.9881" r="1.51045" stroke="#084CAF" stroke-width="1.16189"/>
<circle cx="31.232" cy="2.09139" r="1.51045" stroke="#084CAF" stroke-width="1.16189"/>
</svg>
